<svg width="24" height="24" viewBox="0 0 24 24" fill="none" xmlns="http://www.w3.org/2000/svg">
    <path d="M20.317 4.369a19.791 19.791 0 00-4.885-1.515.074.074 0 00-.079.037c-.211.375-.444.864-.608 1.249-1.844-.276-3.68-.276-5.486 0-.164-.393-.405-.874-.617-1.249a.077.077 0 00-.079-.037c-1.625.276-3.22.739-4.885 1.515a.07.07 0 00-.032.027C.533 9.045-.32 13.579.099 18.057a.082.082 0 00.031.056c2.052 1.515 4.041 2.422 5.992 3.03a.078.078 0 00.084-.027c.461-.63.873-1.295 1.226-1.994a.076.076 0 00-.041-.105c-.652-.249-1.27-.549-1.872-.892a.077.077 0 01-.008-.13c.125-.094.25-.192.369-.291a.074.074 0 01.077-.01c3.927 1.793 8.18 1.793 12.061 0a.073.073 0 01.078.009c.12.099.244.197.369.291a.077.077 0 01-.006.13 12.298 12.298 0 01-1.873.891.076.076 0 00-.04.106c.375.699.787 1.364 1.226 1.993a.078.078 0 00.084.028c1.961-.608 3.95-1.515 6.001-3.03a.077.077 0 00.031-.056c.5-5.177-.838-9.657-4.548-13.661a.061.061 0 00-.031-.027zM8.02 15.331c-1.183 0-2.157-1.085-2.157-2.419 0-1.333.955-2.418 2.157-2.418 1.202 0 2.176 1.085 2.157 2.418 0 1.334-.955 2.419-2.157 2.419zm7.96 0c-1.183 0-2.157-1.085-2.157-2.419 0-1.333.955-2.418 2.157-2.418 1.202 0 2.176 1.085 2.157 2.418 0 1.334-.955 2.419-2.157 2.419z" fill="#5865F2"/>
</svg>